# xmcd
#
# Track frame offsets:
# 150
# 17466
# 23593
# 35537
# 40846
# 48444
# 65424
# 77198
# 99035
# 110925
# 123438
# 137141
# 150887
# 163690
# 178480
# 186513
# 198896
# 203884
# 214411
# 223635
# 231781
#
# Disc length: 3236 seconds
#
#
# Revision: 0
# Processed by: cddbd v1.5.2PL0 Copyright (c) Steve Scherf et al.
# Submitted via: FreeRIP 2.96 
#
DISCID=280ca215
DTITLE=Jonny Cash - Ring of Fire (disk 1)
DYEAR=1900
DGENRE=Country
TTITLE0=Hurt
TTITLE1=Montage
TTITLE2=Country Boy
TTITLE3=Thing Called Love
TTITLE4=There You Go
TTITLE5=While I've Got It On My Mind
TTITLE6=My Old Faded Rose
TTITLE7=Daddy Sang Bass
TTITLE8=Straight A's In Love
TTITLE9=Big River
TTITLE10=I Still Miss Someone
TTITLE11=Five Feet High and Rising
TTITLE12=Flesh and Blood
TTITLE13=Look at Them Beans
TTITLE14=Get Rhythm
TTITLE15=Flushed
TTITLE16=Dirty Old...Dog
TTITLE17=Angel Band
TTITLE18=If I Were A Carpenter
TTITLE19=Ring of Fire
TTITLE20=Jackson
EXTD=
EXTT0=
EXTT1=
EXTT2=
EXTT3=
EXTT4=
EXTT5=
EXTT6=
EXTT7=
EXTT8=
EXTT9=
EXTT10=
EXTT11=
EXTT12=
EXTT13=
EXTT14=
EXTT15=
EXTT16=
EXTT17=
EXTT18=
EXTT19=
EXTT20=
PLAYORDER=
